<svg width="1200" height="675" xmlns="http://www.w3.org/2000/svg">
  <defs>
    <linearGradient id="bg" x1="0%" y1="0%" x2="100%" y2="100%">
      <stop offset="0%" style="stop-color:#0a2240"/>
      <stop offset="100%" style="stop-color:#071520"/>
    </linearGradient>
  </defs>
  <rect width="1200" height="675" fill="url(#bg)"/>
  <!-- Grid -->
  <g opacity="0.06">
    <line x1="0" y1="100" x2="1200" y2="100" stroke="#fff" stroke-width="1"/>
    <line x1="0" y1="200" x2="1200" y2="200" stroke="#fff" stroke-width="1"/>
    <line x1="0" y1="300" x2="1200" y2="300" stroke="#fff" stroke-width="1"/>
    <line x1="0" y1="400" x2="1200" y2="400" stroke="#fff" stroke-width="1"/>
    <line x1="0" y1="500" x2="1200" y2="500" stroke="#fff" stroke-width="1"/>
    <line x1="0" y1="600" x2="1200" y2="600" stroke="#fff" stroke-width="1"/>
    <line x1="150" y1="0" x2="150" y2="675" stroke="#fff" stroke-width="1"/>
    <line x1="300" y1="0" x2="300" y2="675" stroke="#fff" stroke-width="1"/>
    <line x1="450" y1="0" x2="450" y2="675" stroke="#fff" stroke-width="1"/>
    <line x1="600" y1="0" x2="600" y2="675" stroke="#fff" stroke-width="1"/>
    <line x1="750" y1="0" x2="750" y2="675" stroke="#fff" stroke-width="1"/>
    <line x1="900" y1="0" x2="900" y2="675" stroke="#fff" stroke-width="1"/>
    <line x1="1050" y1="0" x2="1050" y2="675" stroke="#fff" stroke-width="1"/>
  </g>
  <!-- Loan status flow (simplified) -->
  <g opacity="0.2">
    <rect x="60"  y="260" width="130" height="50" rx="10" fill="#3b82f6"/>
    <rect x="240" y="260" width="130" height="50" rx="10" fill="#8b5cf6"/>
    <rect x="420" y="260" width="130" height="50" rx="10" fill="#f59e0b"/>
    <rect x="600" y="260" width="130" height="50" rx="10" fill="#22c55e"/>
    <rect x="780" y="260" width="130" height="50" rx="10" fill="#06b6d4"/>
    <line x1="190" y1="285" x2="240" y2="285" stroke="#60a5fa" stroke-width="2"/>
    <line x1="370" y1="285" x2="420" y2="285" stroke="#60a5fa" stroke-width="2"/>
    <line x1="550" y1="285" x2="600" y2="285" stroke="#60a5fa" stroke-width="2"/>
    <line x1="730" y1="285" x2="780" y2="285" stroke="#60a5fa" stroke-width="2"/>
    <polygon points="234,279 240,285 234,291" fill="#60a5fa"/>
    <polygon points="414,279 420,285 414,291" fill="#60a5fa"/>
    <polygon points="594,279 600,285 594,291" fill="#60a5fa"/>
    <polygon points="774,279 780,285 774,291" fill="#60a5fa"/>
  </g>
  <!-- Dollar/chart icon -->
  <text x="600" y="270" font-family="monospace" font-size="90" fill="#22c55e" opacity="0.12" text-anchor="middle">₩</text>
  <!-- Title -->
  <text x="600" y="380" font-family="system-ui, sans-serif" font-size="46" font-weight="bold" fill="#f1f5f9" text-anchor="middle">신용대출 통합 관리 시스템</text>
  <text x="600" y="430" font-family="system-ui, sans-serif" font-size="24" fill="#94a3b8" text-anchor="middle">신청 · 심사 · 실행 · 상환 전 라이프사이클</text>
  <!-- Tech badges -->
  <rect x="220" y="470" width="110" height="32" rx="16" fill="#1e3a5f" opacity="0.8"/>
  <text x="275" y="491" font-family="system-ui, sans-serif" font-size="14" fill="#93c5fd" text-anchor="middle">Spring Boot</text>
  <rect x="348" y="470" width="80" height="32" rx="16" fill="#1e3a5f" opacity="0.8"/>
  <text x="388" y="491" font-family="system-ui, sans-serif" font-size="14" fill="#93c5fd" text-anchor="middle">MyBatis</text>
  <rect x="446" y="470" width="100" height="32" rx="16" fill="#1e3a5f" opacity="0.8"/>
  <text x="496" y="491" font-family="system-ui, sans-serif" font-size="14" fill="#93c5fd" text-anchor="middle">Next.js 15</text>
  <rect x="564" y="470" width="100" height="32" rx="16" fill="#1e3a5f" opacity="0.8"/>
  <text x="614" y="491" font-family="system-ui, sans-serif" font-size="14" fill="#93c5fd" text-anchor="middle">PostgreSQL</text>
  <rect x="682" y="470" width="80" height="32" rx="16" fill="#1e3a5f" opacity="0.8"/>
  <text x="722" y="491" font-family="system-ui, sans-serif" font-size="14" fill="#93c5fd" text-anchor="middle">Docker</text>
  <rect x="780" y="470" width="90" height="32" rx="16" fill="#1e3a5f" opacity="0.8"/>
  <text x="825" y="491" font-family="system-ui, sans-serif" font-size="14" fill="#93c5fd" text-anchor="middle">Tailwind</text>
</svg>
