<svg width="1200" height="675" xmlns="http://www.w3.org/2000/svg">
  <defs>
    <linearGradient id="bg" x1="0%" y1="0%" x2="100%" y2="100%">
      <stop offset="0%" style="stop-color:#1a1a2e"/>
      <stop offset="100%" style="stop-color:#0f0f23"/>
    </linearGradient>
  </defs>
  <rect width="1200" height="675" fill="url(#bg)"/>
  <!-- Grid pattern -->
  <g opacity="0.06">
    <line x1="100" y1="0" x2="100" y2="675" stroke="#fff" stroke-width="1"/>
    <line x1="200" y1="0" x2="200" y2="675" stroke="#fff" stroke-width="1"/>
    <line x1="300" y1="0" x2="300" y2="675" stroke="#fff" stroke-width="1"/>
    <line x1="400" y1="0" x2="400" y2="675" stroke="#fff" stroke-width="1"/>
    <line x1="500" y1="0" x2="500" y2="675" stroke="#fff" stroke-width="1"/>
    <line x1="600" y1="0" x2="600" y2="675" stroke="#fff" stroke-width="1"/>
    <line x1="700" y1="0" x2="700" y2="675" stroke="#fff" stroke-width="1"/>
    <line x1="800" y1="0" x2="800" y2="675" stroke="#fff" stroke-width="1"/>
    <line x1="900" y1="0" x2="900" y2="675" stroke="#fff" stroke-width="1"/>
    <line x1="1000" y1="0" x2="1000" y2="675" stroke="#fff" stroke-width="1"/>
    <line x1="1100" y1="0" x2="1100" y2="675" stroke="#fff" stroke-width="1"/>
    <line x1="0" y1="100" x2="1200" y2="100" stroke="#fff" stroke-width="1"/>
    <line x1="0" y1="200" x2="1200" y2="200" stroke="#fff" stroke-width="1"/>
    <line x1="0" y1="300" x2="1200" y2="300" stroke="#fff" stroke-width="1"/>
    <line x1="0" y1="400" x2="1200" y2="400" stroke="#fff" stroke-width="1"/>
    <line x1="0" y1="500" x2="1200" y2="500" stroke="#fff" stroke-width="1"/>
    <line x1="0" y1="600" x2="1200" y2="600" stroke="#fff" stroke-width="1"/>
  </g>
  <!-- Audio waveform visualization -->
  <g opacity="0.2">
    <rect x="100" y="270" width="12" height="60" rx="6" fill="#f472b6"/>
    <rect x="130" y="240" width="12" height="120" rx="6" fill="#e879f9"/>
    <rect x="160" y="255" width="12" height="90" rx="6" fill="#c084fc"/>
    <rect x="190" y="230" width="12" height="140" rx="6" fill="#a78bfa"/>
    <rect x="220" y="260" width="12" height="80" rx="6" fill="#818cf8"/>
    <rect x="250" y="245" width="12" height="110" rx="6" fill="#e879f9"/>
    <rect x="280" y="265" width="12" height="70" rx="6" fill="#f472b6"/>
    <rect x="310" y="235" width="12" height="130" rx="6" fill="#c084fc"/>
    <rect x="340" y="258" width="12" height="84" rx="6" fill="#a78bfa"/>
    <rect x="370" y="248" width="12" height="104" rx="6" fill="#818cf8"/>
  </g>
  <!-- Arrow from waveform to text -->
  <g opacity="0.18">
    <line x1="420" y1="300" x2="520" y2="300" stroke="#c084fc" stroke-width="3"/>
    <polygon points="513,293 520,300 513,307" fill="#c084fc"/>
    <!-- Text output block -->
    <rect x="530" y="240" width="280" height="120" rx="12" fill="#7c3aed"/>
    <line x1="555" y1="270" x2="780" y2="270" stroke="#ddd6fe" stroke-width="2" opacity="0.5"/>
    <line x1="555" y1="295" x2="740" y2="295" stroke="#ddd6fe" stroke-width="2" opacity="0.4"/>
    <line x1="555" y1="320" x2="760" y2="320" stroke="#ddd6fe" stroke-width="2" opacity="0.3"/>
  </g>
  <!-- GPU chip icon -->
  <g opacity="0.12" transform="translate(900, 230)">
    <rect x="0" y="0" width="100" height="100" rx="10" fill="#a78bfa"/>
    <rect x="20" y="20" width="60" height="60" rx="5" fill="#7c3aed"/>
    <rect x="-12" y="25" width="12" height="10" rx="2" fill="#a78bfa"/>
    <rect x="-12" y="45" width="12" height="10" rx="2" fill="#a78bfa"/>
    <rect x="-12" y="65" width="12" height="10" rx="2" fill="#a78bfa"/>
    <rect x="100" y="25" width="12" height="10" rx="2" fill="#a78bfa"/>
    <rect x="100" y="45" width="12" height="10" rx="2" fill="#a78bfa"/>
    <rect x="100" y="65" width="12" height="10" rx="2" fill="#a78bfa"/>
    <rect x="25" y="-12" width="10" height="12" rx="2" fill="#a78bfa"/>
    <rect x="45" y="-12" width="10" height="12" rx="2" fill="#a78bfa"/>
    <rect x="65" y="-12" width="10" height="12" rx="2" fill="#a78bfa"/>
  </g>
  <!-- Title -->
  <text x="600" y="390" font-family="system-ui, sans-serif" font-size="46" font-weight="bold" fill="#f1f5f9" text-anchor="middle">Korean STT</text>
  <text x="600" y="440" font-family="system-ui, sans-serif" font-size="26" fill="#94a3b8" text-anchor="middle">Whisper 기반 한국어 음성 인식 시스템</text>
  <!-- Tech badges -->
  <rect x="290" y="475" width="90" height="32" rx="16" fill="#3b0764" opacity="0.7"/>
  <text x="335" y="496" font-family="system-ui, sans-serif" font-size="14" fill="#d8b4fe" text-anchor="middle">Python</text>
  <rect x="398" y="475" width="150" height="32" rx="16" fill="#3b0764" opacity="0.7"/>
  <text x="473" y="496" font-family="system-ui, sans-serif" font-size="14" fill="#d8b4fe" text-anchor="middle">faster-whisper</text>
  <rect x="566" y="475" width="80" height="32" rx="16" fill="#3b0764" opacity="0.7"/>
  <text x="606" y="496" font-family="system-ui, sans-serif" font-size="14" fill="#d8b4fe" text-anchor="middle">CUDA</text>
  <rect x="664" y="475" width="70" height="32" rx="16" fill="#3b0764" opacity="0.7"/>
  <text x="699" y="496" font-family="system-ui, sans-serif" font-size="14" fill="#d8b4fe" text-anchor="middle">VAD</text>
  <rect x="752" y="475" width="100" height="32" rx="16" fill="#3b0764" opacity="0.7"/>
  <text x="802" y="496" font-family="system-ui, sans-serif" font-size="14" fill="#d8b4fe" text-anchor="middle">REST API</text>
</svg>