<svg width="1200" height="675" xmlns="http://www.w3.org/2000/svg">
  <defs>
    <linearGradient id="bg2" x1="0%" y1="0%" x2="100%" y2="100%">
      <stop offset="0%" style="stop-color:#312e81"/>
      <stop offset="100%" style="stop-color:#0f172a"/>
    </linearGradient>
  </defs>
  <rect width="1200" height="675" fill="url(#bg2)"/>
  <!-- Dots pattern -->
  <g opacity="0.06">
    <circle cx="50" cy="50" r="3" fill="#fff"/><circle cx="150" cy="50" r="3" fill="#fff"/>
    <circle cx="250" cy="50" r="3" fill="#fff"/><circle cx="350" cy="50" r="3" fill="#fff"/>
    <circle cx="450" cy="50" r="3" fill="#fff"/><circle cx="550" cy="50" r="3" fill="#fff"/>
    <circle cx="650" cy="50" r="3" fill="#fff"/><circle cx="750" cy="50" r="3" fill="#fff"/>
    <circle cx="850" cy="50" r="3" fill="#fff"/><circle cx="950" cy="50" r="3" fill="#fff"/>
    <circle cx="1050" cy="50" r="3" fill="#fff"/><circle cx="1150" cy="50" r="3" fill="#fff"/>
    <circle cx="50" cy="150" r="3" fill="#fff"/><circle cx="150" cy="150" r="3" fill="#fff"/>
    <circle cx="250" cy="150" r="3" fill="#fff"/><circle cx="350" cy="150" r="3" fill="#fff"/>
    <circle cx="450" cy="150" r="3" fill="#fff"/><circle cx="550" cy="150" r="3" fill="#fff"/>
    <circle cx="650" cy="150" r="3" fill="#fff"/><circle cx="750" cy="150" r="3" fill="#fff"/>
    <circle cx="850" cy="150" r="3" fill="#fff"/><circle cx="950" cy="150" r="3" fill="#fff"/>
    <circle cx="1050" cy="150" r="3" fill="#fff"/><circle cx="1150" cy="150" r="3" fill="#fff"/>
    <circle cx="50" cy="250" r="3" fill="#fff"/><circle cx="150" cy="250" r="3" fill="#fff"/>
    <circle cx="250" cy="250" r="3" fill="#fff"/><circle cx="350" cy="250" r="3" fill="#fff"/>
    <circle cx="450" cy="250" r="3" fill="#fff"/><circle cx="550" cy="250" r="3" fill="#fff"/>
    <circle cx="650" cy="250" r="3" fill="#fff"/><circle cx="750" cy="250" r="3" fill="#fff"/>
    <circle cx="850" cy="250" r="3" fill="#fff"/><circle cx="950" cy="250" r="3" fill="#fff"/>
    <circle cx="1050" cy="250" r="3" fill="#fff"/><circle cx="1150" cy="250" r="3" fill="#fff"/>
    <circle cx="50" cy="350" r="3" fill="#fff"/><circle cx="150" cy="350" r="3" fill="#fff"/>
    <circle cx="250" cy="350" r="3" fill="#fff"/><circle cx="350" cy="350" r="3" fill="#fff"/>
    <circle cx="450" cy="350" r="3" fill="#fff"/><circle cx="550" cy="350" r="3" fill="#fff"/>
    <circle cx="650" cy="350" r="3" fill="#fff"/><circle cx="750" cy="350" r="3" fill="#fff"/>
    <circle cx="850" cy="350" r="3" fill="#fff"/><circle cx="950" cy="350" r="3" fill="#fff"/>
    <circle cx="1050" cy="350" r="3" fill="#fff"/><circle cx="1150" cy="350" r="3" fill="#fff"/>
    <circle cx="50" cy="450" r="3" fill="#fff"/><circle cx="150" cy="450" r="3" fill="#fff"/>
    <circle cx="250" cy="450" r="3" fill="#fff"/><circle cx="350" cy="450" r="3" fill="#fff"/>
    <circle cx="450" cy="450" r="3" fill="#fff"/><circle cx="550" cy="450" r="3" fill="#fff"/>
    <circle cx="650" cy="450" r="3" fill="#fff"/><circle cx="750" cy="450" r="3" fill="#fff"/>
    <circle cx="850" cy="450" r="3" fill="#fff"/><circle cx="950" cy="450" r="3" fill="#fff"/>
    <circle cx="1050" cy="450" r="3" fill="#fff"/><circle cx="1150" cy="450" r="3" fill="#fff"/>
    <circle cx="50" cy="550" r="3" fill="#fff"/><circle cx="150" cy="550" r="3" fill="#fff"/>
    <circle cx="250" cy="550" r="3" fill="#fff"/><circle cx="350" cy="550" r="3" fill="#fff"/>
    <circle cx="450" cy="550" r="3" fill="#fff"/><circle cx="550" cy="550" r="3" fill="#fff"/>
    <circle cx="650" cy="550" r="3" fill="#fff"/><circle cx="750" cy="550" r="3" fill="#fff"/>
    <circle cx="850" cy="550" r="3" fill="#fff"/><circle cx="950" cy="550" r="3" fill="#fff"/>
    <circle cx="1050" cy="550" r="3" fill="#fff"/><circle cx="1150" cy="550" r="3" fill="#fff"/>
    <circle cx="50" cy="650" r="3" fill="#fff"/><circle cx="150" cy="650" r="3" fill="#fff"/>
    <circle cx="250" cy="650" r="3" fill="#fff"/><circle cx="350" cy="650" r="3" fill="#fff"/>
    <circle cx="450" cy="650" r="3" fill="#fff"/><circle cx="550" cy="650" r="3" fill="#fff"/>
    <circle cx="650" cy="650" r="3" fill="#fff"/><circle cx="750" cy="650" r="3" fill="#fff"/>
    <circle cx="850" cy="650" r="3" fill="#fff"/><circle cx="950" cy="650" r="3" fill="#fff"/>
    <circle cx="1050" cy="650" r="3" fill="#fff"/><circle cx="1150" cy="650" r="3" fill="#fff"/>
  </g>
  <!-- Browser mockup -->
  <g opacity="0.12">
    <rect x="250" y="120" width="700" height="420" rx="12" fill="#fff"/>
    <rect x="250" y="120" width="700" height="40" rx="12" fill="#e2e8f0"/>
    <rect x="250" y="148" width="700" height="4" fill="#e2e8f0"/>
    <circle cx="278" cy="140" r="7" fill="#f87171"/>
    <circle cx="302" cy="140" r="7" fill="#fbbf24"/>
    <circle cx="326" cy="140" r="7" fill="#34d399"/>
  </g>
  <!-- Code icon -->
  <text x="600" y="290" font-family="monospace" font-size="100" fill="#a78bfa" opacity="0.2" text-anchor="middle">&lt;/&gt;</text>
  <!-- Title -->
  <text x="600" y="380" font-family="system-ui, sans-serif" font-size="48" font-weight="bold" fill="#f1f5f9" text-anchor="middle">AI Portfolio</text>
  <text x="600" y="435" font-family="system-ui, sans-serif" font-size="28" fill="#94a3b8" text-anchor="middle">Next.js + MDX 포트폴리오 &amp; 블로그</text>
  <!-- Tech badges -->
  <rect x="310" y="470" width="100" height="32" rx="16" fill="#4c1d95" opacity="0.5"/>
  <text x="360" y="491" font-family="system-ui, sans-serif" font-size="14" fill="#c4b5fd" text-anchor="middle">Next.js 15</text>
  <rect x="430" y="470" width="110" height="32" rx="16" fill="#4c1d95" opacity="0.5"/>
  <text x="485" y="491" font-family="system-ui, sans-serif" font-size="14" fill="#c4b5fd" text-anchor="middle">TypeScript</text>
  <rect x="560" y="470" width="120" height="32" rx="16" fill="#4c1d95" opacity="0.5"/>
  <text x="620" y="491" font-family="system-ui, sans-serif" font-size="14" fill="#c4b5fd" text-anchor="middle">Tailwind CSS</text>
  <rect x="700" y="470" width="70" height="32" rx="16" fill="#4c1d95" opacity="0.5"/>
  <text x="735" y="491" font-family="system-ui, sans-serif" font-size="14" fill="#c4b5fd" text-anchor="middle">MDX</text>
  <rect x="790" y="470" width="100" height="32" rx="16" fill="#4c1d95" opacity="0.5"/>
  <text x="840" y="491" font-family="system-ui, sans-serif" font-size="14" fill="#c4b5fd" text-anchor="middle">GitHub Pages</text>
</svg>
